Coordinates
version=1
nRows=17
nColumns=24
inDegrees=yes

Units are S.I. units (second, meters, Newtons, ...)
Angles are in degrees.

endheader
time	pelvis_tilt	pelvis_list	pelvis_rotation	pelvis_tx	pelvis_ty	pelvis_tz	hip_flexion_r	hip_adduction_r	hip_rotation_r	knee_angle_r	ankle_angle_r	subtalar_angle_r	mtp_angle_r	hip_flexion_l	hip_adduction_l	hip_rotation_l	knee_angle_l	ankle_angle_l	subtalar_angle_l	mtp_angle_l	lumbar_extension	lumbar_bending	lumbar_rotation
      1.33733333	      2.10872737	     10.15480238	     -5.11114318	      0.23422712	      1.00633235	      0.31385039	     15.09625874	    -13.79562081	     -1.38939249	    -73.31807442	     -8.37051167	    -14.88576707	      3.28798756	      6.98713706	     15.69814817	      3.96203037	    -13.23150024	      2.23232861	    -21.07857832	     -3.76245438	    -13.82935561	     -5.94599835	     -0.91323839
      1.34150000	      2.11375044	      9.94493501	     -5.10223354	      0.23915743	      1.00731654	      0.31372172	     15.68216804	    -13.48347811	     -1.36132902	    -73.11418350	     -7.71984956	    -14.93900364	      3.19971255	      6.40024175	     15.50683568	      4.12305734	    -12.76521438	      2.23554218	    -21.09086048	     -3.77335592	    -13.87997186	     -5.61007407	     -1.12604823
      1.34566667	      2.15303872	      9.76490734	     -5.08147923	      0.24416176	      1.00832982	      0.31357320	     16.20610110	    -13.22350786	     -1.36520859	    -72.84212202	     -7.13531502	    -14.95339401	      2.98033132	      5.73025591	     15.35500392	      4.37159490	    -12.20605953	      2.21606715	    -21.19148719	     -3.79897646	    -13.91175050	     -5.32242104	     -1.51187817
      1.34983333	      2.15334788	      9.57422632	     -5.05895410	      0.24912941	      1.00923147	      0.31343183	     16.76323411	    -12.93643106	     -1.35888176	    -72.52389361	     -6.55140790	    -15.01678754	      2.74375529	      5.13056054	     15.18058743	      4.55351176	    -11.70034599	      2.21648445	    -21.21968234	     -3.82714624	    -13.92404075	     -5.03941805	     -1.73210013
      1.35400000	      2.13184612	      9.37511522	     -5.03427837	      0.25406016	      1.01007476	      0.31333004	     17.33073012	    -12.62500764	     -1.34871546	    -72.15072853	     -5.97911434	    -15.13482495	      2.65568053	      4.57550125	     14.98494249	      4.67106631	    -11.23206616	      2.23833623	    -21.15102586	     -3.83748816	    -13.92938047	     -4.76668757	     -1.84114278
      1.35816667	      2.13748693	      9.16737663	     -4.99679038	      0.25903193	      1.01092580	      0.31320363	     17.83743940	    -12.31648575	     -1.36594975	    -71.71137009	     -5.41927376	    -15.19762955	      2.56836168	      3.97821864	     14.78318521	      4.81457774	    -10.74778183	      2.26810730	    -21.09962405	     -3.84743361	    -13.95073323	     -4.47003848	     -2.02190268
      1.36233333	      2.12176235	      8.97214689	     -4.95104977	      0.26400679	      1.01169401	      0.31307095	     18.35591486	    -12.02433814	     -1.39397592	    -71.22491471	     -4.87126809	    -15.26581237	      2.49502697	      3.40629602	     14.59007732	      4.94251747	    -10.26355674	      2.30038998	    -21.04531857	     -3.85547887	    -13.92333614	     -4.19229655	     -2.19992945
      1.36650000	      2.15033517	      8.79173766	     -4.90915286	      0.26893506	      1.01245361	      0.31292879	     18.82141131	    -11.75386105	     -1.41139503	    -70.69628838	     -4.35474156	    -15.24406068	      2.34168220	      2.77721303	     14.41958787	      5.15030223	     -9.75161820	      2.32222403	    -21.03713717	     -3.87191378	    -13.99497721	     -3.90918914	     -2.54063728
      1.37066667	      2.13933787	      8.60362236	     -4.85462969	      0.27391305	      1.01313153	      0.31280020	     19.30112527	    -11.47186748	     -1.44910725	    -70.10868283	     -3.79522726	    -15.31023233	      2.26382036	      2.21099099	     14.22835206	      5.25705827	     -9.28483881	      2.33519878	    -20.96687355	     -3.88071436	    -13.97821712	     -3.63717923	     -2.67837326
      1.37483333	      2.18731696	      8.43363409	     -4.80799759	      0.27887632	      1.01381961	      0.31265855	     19.71018754	    -11.22431132	     -1.48584294	    -69.47598831	     -3.28555437	    -15.26902022	      2.08627898	      1.55940459	     14.06475848	      5.44533048	     -8.76760928	      2.36807505	    -20.94440451	     -3.89874457	    -14.04337225	     -3.36614380	     -3.00758344
      1.37900000	      2.18666707	      8.24562115	     -4.75022773	      0.28382956	      1.01440912	      0.31253526	     20.14909384	    -10.94349926	     -1.52143342	    -68.78617656	     -2.76540426	    -15.26921408	      1.92309837	      0.98171605	     13.87104243	      5.58466337	     -8.29475037	      2.39407552	    -20.88556031	     -3.91467737	    -14.05733734	     -3.09045362	     -3.21158336
      1.38316667	      2.21238230	      8.08208236	     -4.69407072	      0.28878524	      1.01497298	      0.31241422	     20.54970571	    -10.69727303	     -1.55863456	    -68.05474902	     -2.23900270	    -15.24617395	      1.75307825	      0.37755010	     13.70356843	      5.72028739	     -7.81736831	      2.41675536	    -20.81279424	     -3.93022965	    -14.09970234	     -2.84740594	     -3.43234775
      1.38733333	      2.23078093	      7.90705906	     -4.63255759	      0.29373805	      1.01547447	      0.31230457	     20.93750181	    -10.43551009	     -1.59665098	    -67.26991878	     -1.73455749	    -15.21350080	      1.59215420	     -0.21267491	     13.51973981	      5.85138829	     -7.35525309	      2.45202284	    -20.73257212	     -3.94305276	    -14.13560417	     -2.59268781	     -3.63807628
      1.39150000	      2.24441006	      7.75118145	     -4.56066754	      0.29870700	      1.01591439	      0.31218184	     21.31502952	    -10.20339934	     -1.64644070	    -66.44158900	     -1.20803952	    -15.17866319	      1.29959185	     -0.79419619	     13.35406566	      5.98237292	     -6.89596382	      2.45459012	    -20.67869294	     -3.96607715	    -14.14946584	     -2.35814068	     -3.89020958
      1.39566667	      2.26476039	      7.59470451	     -4.50745620	      0.30365344	      1.01629398	      0.31209270	     21.67876002	     -9.96064042	     -1.66482465	    -65.57020924	     -0.73788619	    -15.09177494	      1.16859861	     -1.37604905	     13.18583044	      6.10917475	     -6.44615751	      2.51932307	    -20.56672519	     -3.97343462	    -14.20520075	     -2.12760655	     -4.04083939
      1.39983333	      2.24497474	      7.43416979	     -4.43681604	      0.30861039	      1.01658769	      0.31200364	     22.06093081	     -9.71102182	     -1.69447286	    -64.64264900	     -0.26277582	    -15.04282112	      1.11010624	     -1.89798164	     13.00654377	      6.20589866	     -6.03201192	      2.55522735	    -20.45735977	     -3.97574498	    -14.19663916	     -1.90563708	     -4.15615053
      1.40400000	      2.31724107	      7.28744951	     -4.37551816	      0.31357825	      1.01693813	      0.31189930	     22.32996091	     -9.49936402	     -1.73342791	    -63.67281591	      0.17477477	    -14.93014970	      0.99863574	     -2.54397862	     12.84923820	      6.35190344	     -5.56269621	      2.61502471	    -20.36652393	     -3.97908055	    -14.29790219	     -1.66847645	     -4.41795949
